<svg width="95" height="80" viewBox="0 0 95 80" fill="none" xmlns="http://www.w3.org/2000/svg">
<path d="M0 80V58.9474C0 52.5536 1.12129 45.77 3.36386 38.5965C5.68376 31.345 9.00895 24.3665 13.3394 17.6608C17.7473 10.8772 23.0444 4.99025 29.2308 0L40.5983 9.94153C34.7212 16.8031 29.7721 24.4444 25.7509 32.8655C21.8071 41.2086 19.8352 49.7856 19.8352 58.5965V80H0ZM54.4017 80V58.9474C54.4017 52.5536 55.523 45.77 57.7656 38.5965C60.0855 31.345 63.4107 24.3665 67.7411 17.6608C72.149 10.8772 77.4461 4.99025 83.6325 0L95 9.94153C89.1229 16.8031 84.1738 24.4444 80.1526 32.8655C76.2088 41.2086 74.2369 49.7856 74.2369 58.5965V80H54.4017Z" fill="#929292"/>
</svg>
