<svg width="21" height="18" viewBox="0 0 21 18" fill="none" xmlns="http://www.w3.org/2000/svg">
<path fill-rule="evenodd" clip-rule="evenodd" d="M1.60012 7.79942C7.13901 5.38622 10.8325 3.79529 12.6805 3.02663C17.957 0.83195 19.0534 0.450711 19.768 0.438123C19.9252 0.435354 20.2766 0.474306 20.5043 0.659023C20.6965 0.814994 20.7494 1.02569 20.7747 1.17357C20.8 1.32144 20.8315 1.65831 20.8065 1.92153C20.5205 4.92588 19.2833 12.2166 18.6539 15.5815C18.3875 17.0054 17.8631 17.4828 17.3554 17.5295C16.252 17.631 15.4142 16.8003 14.3455 16.0998C12.6733 15.0036 11.7286 14.3212 10.1053 13.2516C8.22945 12.0154 9.44551 11.336 10.5146 10.2256C10.7944 9.93499 15.6558 5.51313 15.7499 5.112C15.7617 5.06183 15.7726 4.87482 15.6615 4.77608C15.5504 4.67733 15.3864 4.7111 15.2681 4.73796C15.1004 4.77602 12.429 6.54174 7.2538 10.0351C6.49553 10.5558 5.8087 10.8095 5.19333 10.7962C4.51493 10.7815 3.20997 10.4126 2.23986 10.0973C1.04998 9.7105 0.104291 9.50601 0.186639 8.84914C0.229532 8.50699 0.700692 8.15709 1.60012 7.79942Z" fill="white"/>
</svg>
