<svg width="23" height="22" viewBox="0 0 23 22" fill="none" xmlns="http://www.w3.org/2000/svg">
<path d="M0 22L1.6167 16.3506C0.619082 14.6969 0.0948748 12.8223 0.0958331 10.9001C0.0987081 4.89042 5.21141 0 11.4933 0C14.5417 0.000916667 17.4033 1.13667 19.5557 3.19733C21.7072 5.258 22.8917 7.997 22.8907 10.9102C22.8878 16.9208 17.7751 21.8112 11.4933 21.8112C9.58619 21.8103 7.7069 21.3528 6.04228 20.4838L0 22ZM6.32211 18.5103C7.92827 19.4223 9.4616 19.9687 11.4894 19.9696C16.7104 19.9696 20.9635 15.9051 20.9664 10.9083C20.9683 5.9015 16.7353 1.8425 11.4971 1.84067C6.27228 1.84067 2.02208 5.90517 2.02016 10.901C2.0192 12.9406 2.64404 14.4677 3.69341 16.0655L2.73604 19.4095L6.32211 18.5103ZM17.2346 13.5016C17.1637 13.3879 16.974 13.3201 16.6884 13.1835C16.4038 13.0469 15.0036 12.3878 14.742 12.2971C14.4813 12.2063 14.2916 12.1605 14.1009 12.4337C13.9111 12.7059 13.3649 13.3201 13.1991 13.5016C13.0333 13.6831 12.8666 13.706 12.5819 13.5694C12.2973 13.4328 11.3792 13.1459 10.2915 12.2173C9.44531 11.495 8.87319 10.6031 8.7074 10.3299C8.5416 10.0577 8.69015 9.91008 8.83198 9.77442C8.9604 9.6525 9.1166 9.45633 9.2594 9.29683C9.4041 9.13917 9.45106 9.0255 9.5469 8.84308C9.64177 8.66158 9.59481 8.50208 9.52294 8.3655C9.45106 8.22983 8.88181 6.88875 8.64511 6.34333C8.41319 5.81258 8.1784 5.88408 8.00398 5.87583L7.45773 5.86667C7.26798 5.86667 6.9594 5.9345 6.69873 6.20767C6.43807 6.48083 5.70207 7.139 5.70207 8.48008C5.70207 9.82117 6.72269 11.1164 6.86453 11.2979C7.00732 11.4794 8.87223 14.2313 11.729 15.411C12.4085 15.6915 12.9394 15.8593 13.3524 15.9848C14.0348 16.192 14.6558 16.1627 15.1464 16.093C15.6936 16.0151 16.8312 15.4339 17.0688 14.7978C17.3065 14.1607 17.3065 13.6153 17.2346 13.5016Z" fill="white"/>
</svg>
